<svg width="38" height="38" viewBox="0 0 38 38" fill="none" xmlns="http://www.w3.org/2000/svg">
<path d="M6.33329 31.6667C5.46246 31.6667 4.71697 31.3566 4.09683 30.7365C3.4767 30.1163 3.16663 29.3708 3.16663 28.5V9.49999C3.16663 8.62916 3.4767 7.88368 4.09683 7.26354C4.71697 6.6434 5.46246 6.33333 6.33329 6.33333H31.6666C32.5375 6.33333 33.2829 6.6434 33.9031 7.26354C34.5232 7.88368 34.8333 8.62916 34.8333 9.49999V28.5C34.8333 29.3708 34.5232 30.1163 33.9031 30.7365C33.2829 31.3566 32.5375 31.6667 31.6666 31.6667H6.33329ZM19 20.5833L6.33329 12.6667V28.5H31.6666V12.6667L19 20.5833ZM19 17.4167L31.6666 9.49999H6.33329L19 17.4167ZM6.33329 12.6667V9.49999V28.5V12.6667Z" fill="#CCCCCC"/>
</svg>
