<svg width="32" height="31" viewBox="0 0 32 31" fill="none" xmlns="http://www.w3.org/2000/svg">
<mask id="mask0_148_46" style="mask-type:luminance" maskUnits="userSpaceOnUse" x="0" y="0" width="32" height="31">
<path d="M32 0H0V30.1176H32V0Z" fill="white"/>
</mask>
<g mask="url(#mask0_148_46)">
<path d="M32 14.6685C32 12.6734 29.3453 10.7825 25.2752 9.60998C26.2144 5.70562 25.7969 2.59931 23.9576 1.6048C23.5336 1.37153 23.0379 1.26102 22.4965 1.26102V2.63C22.7965 2.63 23.0379 2.68526 23.2401 2.78962C24.1272 3.26846 24.512 5.09172 24.212 7.43679C24.1403 8.01386 24.0228 8.62161 23.8793 9.24164C22.6009 8.94698 21.2051 8.71983 19.7375 8.5725C18.8569 7.43679 17.9437 6.40545 17.024 5.50303C19.1504 3.64294 21.1464 2.62387 22.5031 2.62387V1.25488C20.7093 1.25488 18.3612 2.45812 15.9869 4.54536C13.6127 2.47039 11.2646 1.27944 9.47085 1.27944V2.64843C10.821 2.64843 12.8235 3.66135 14.9499 5.50916C14.0367 6.41159 13.1235 7.43679 12.256 8.5725C10.7819 8.71983 9.38605 8.94698 8.10763 9.24778C7.9576 8.63389 7.84672 8.03842 7.76844 7.46749C7.46188 5.12241 7.8402 3.29916 8.72075 2.81417C8.91643 2.70367 9.17081 2.65456 9.47085 2.65456V1.28558C8.92295 1.28558 8.42723 1.39608 7.99673 1.62936C6.16388 2.62387 5.75296 5.72403 6.69873 9.61612C2.64167 10.7948 0 12.6795 0 14.6685C0 16.6636 2.65471 18.5545 6.72483 19.7269C5.78557 23.6313 6.20301 26.7377 8.0424 27.7322C8.46637 27.9655 8.96209 28.0759 9.50999 28.0759C11.3037 28.0759 13.6519 26.8727 16.0261 24.7854C18.4003 26.8604 20.7485 28.0513 22.5421 28.0513C23.0901 28.0513 23.5859 27.9409 24.0163 27.7076C25.8492 26.7131 26.2601 23.613 25.3143 19.7208C29.3584 18.5483 32 16.6575 32 14.6685ZM23.5076 10.5738C23.2663 11.3657 22.9661 12.1822 22.6269 12.9986C22.3596 12.5076 22.0791 12.0164 21.7725 11.5253C21.4725 11.0342 21.1529 10.5554 20.8333 10.0888C21.7595 10.2177 22.6531 10.3774 23.5076 10.5738ZM20.5201 17.1118C20.0115 17.9406 19.4896 18.7263 18.9483 19.4569C17.9764 19.5367 16.9915 19.5796 16 19.5796C15.0151 19.5796 14.0301 19.5367 13.0648 19.463C12.5234 18.7324 11.9951 17.9529 11.4863 17.1301C10.9906 16.326 10.5406 15.5096 10.1296 14.6869C10.534 13.8643 10.9906 13.0417 11.4798 12.2374C11.9886 11.4087 12.5104 10.6229 13.0518 9.89237C14.0236 9.81257 15.0085 9.76959 16 9.76959C16.9849 9.76959 17.9699 9.81257 18.9352 9.88624C19.4765 10.6168 20.0049 11.3964 20.5136 12.219C21.0093 13.0232 21.4595 13.8397 21.8704 14.6624C21.4595 15.485 21.0093 16.3076 20.5201 17.1118ZM22.6269 16.3137C22.9792 17.1363 23.2792 17.9589 23.5271 18.757C22.6727 18.9534 21.7725 19.1192 20.8397 19.2482C21.1593 18.7754 21.4791 18.2904 21.7791 17.7932C22.0791 17.3021 22.3596 16.8049 22.6269 16.3137ZM16.0131 22.8639C15.4064 22.2746 14.7999 21.6178 14.1997 20.8995C14.7868 20.9241 15.3869 20.9424 15.9935 20.9424C16.6067 20.9424 17.2132 20.9302 17.8068 20.8995C17.2197 21.6178 16.6131 22.2746 16.0131 22.8639ZM11.1602 19.2482C10.234 19.1192 9.3404 18.9595 8.48593 18.7631C8.72727 17.9712 9.02731 17.1547 9.36649 16.3383C9.63392 16.8293 9.91439 17.3205 10.221 17.8116C10.5275 18.3027 10.8406 18.7816 11.1602 19.2482ZM15.9804 6.47298C16.5871 7.06232 17.1936 7.71918 17.7937 8.43744C17.2067 8.41289 16.6067 8.39447 16 8.39447C15.3869 8.39447 14.7803 8.40674 14.1867 8.43744C14.7737 7.71918 15.3804 7.06232 15.9804 6.47298ZM11.1537 10.0888C10.8341 10.5615 10.5145 11.0465 10.2144 11.5437C9.91439 12.0349 9.63392 12.526 9.36649 13.0171C9.01427 12.1945 8.71423 11.3719 8.46637 10.5738C9.32083 10.3835 10.221 10.2177 11.1537 10.0888ZM5.25072 17.7748C2.94171 16.8478 1.44803 15.6323 1.44803 14.6685C1.44803 13.7046 2.94171 12.483 5.25072 11.5622C5.81167 11.335 6.42479 11.1324 7.05748 10.9421C7.42927 12.1454 7.91847 13.3977 8.52507 14.6807C7.92499 15.9577 7.44232 17.2038 7.07705 18.401C6.43131 18.2106 5.81819 18.0019 5.25072 17.7748ZM8.75988 26.5473C7.87281 26.0684 7.48797 24.2452 7.78801 21.9002C7.85976 21.323 7.97717 20.7153 8.12067 20.0954C9.39911 20.39 10.7949 20.6171 12.2625 20.7645C13.1431 21.9002 14.0563 22.9314 14.976 23.834C12.8496 25.694 10.8537 26.7131 9.49695 26.7131C9.20343 26.7069 8.95556 26.6517 8.75988 26.5473ZM24.2316 21.8694C24.5381 24.2146 24.1599 26.0378 23.2792 26.5227C23.0836 26.6333 22.8292 26.6823 22.5292 26.6823C21.1789 26.6823 19.1765 25.6695 17.0501 23.8217C17.9633 22.9193 18.8765 21.894 19.744 20.7583C21.2181 20.611 22.614 20.3839 23.8924 20.0831C24.0424 20.7031 24.1599 21.2986 24.2316 21.8694ZM26.7428 17.7748C26.1819 18.0019 25.5687 18.2045 24.936 18.3948C24.5643 17.1916 24.0751 15.9392 23.4684 14.6562C24.0685 13.3792 24.5512 12.1331 24.9164 10.936C25.5621 11.1263 26.1753 11.335 26.7493 11.5622C29.0583 12.4891 30.552 13.7046 30.552 14.6685C30.5455 15.6323 29.0517 16.8539 26.7428 17.7748Z" fill="#CCCCCC"/>
<path d="M15.9925 17.474C17.6388 17.474 18.9733 16.218 18.9733 14.6686C18.9733 13.119 17.6388 11.863 15.9925 11.863C14.3463 11.863 13.0117 13.119 13.0117 14.6686C13.0117 16.218 14.3463 17.474 15.9925 17.474Z" fill="#CCCCCC"/>
</g>
</svg>
