<svg width="33" height="33" viewBox="0 0 33 33" fill="none" xmlns="http://www.w3.org/2000/svg">
<path fill-rule="evenodd" clip-rule="evenodd" d="M16.5 0.5C12.2333 0.5 9.56667 4.05556 8.5 11.1666C10.1 7.61108 11.9667 6.27778 14.1 7.16663C15.3172 7.6738 16.1872 9.14551 17.1501 10.7746C18.7188 13.4285 20.5344 16.5 24.5 16.5C28.7667 16.5 31.4333 12.9444 32.5 5.83333C30.9 9.38885 29.0333 10.7222 26.9 9.8333C25.6829 9.32613 24.8129 7.85445 23.8499 6.22533C22.2813 3.5715 20.4656 0.5 16.5 0.5ZM8.5 16.5C4.23333 16.5 1.56667 20.0555 0.5 27.1667C2.1 23.611 3.96667 22.2777 6.1 23.1666C7.31719 23.6738 8.18718 25.1455 9.15013 26.7745C10.7188 29.4284 12.5344 32.5 16.5 32.5C20.7667 32.5 23.4333 28.9444 24.5 21.8333C22.9 25.3888 21.0333 26.7222 18.9 25.8333C17.6828 25.3261 16.8128 23.8544 15.8499 22.2253C14.2812 19.5715 12.4656 16.5 8.5 16.5Z" stroke="#CCCCCC" stroke-linejoin="round"/>
</svg>
