<?xml version="1.0" encoding="iso-8859-1"?>
<!-- Uploaded to: SVG Repo, www.svgrepo.com, Generator: SVG Repo Mixer Tools -->
<!DOCTYPE svg PUBLIC "-//W3C//DTD SVG 1.1//EN" "http://www.w3.org/Graphics/SVG/1.1/DTD/svg11.dtd">
<svg fill="#000000" height="100px" width="100px" version="1.1" id="Capa_1" xmlns="http://www.w3.org/2000/svg" xmlns:xlink="http://www.w3.org/1999/xlink" 
	 viewBox="0 0 390.428 390.428" xml:space="preserve">
<path d="M170.579,84.428c0-4.971,4.029-9,9-9h10c4.971,0,9,4.029,9,9s-4.029,9-9,9h-10
	C174.608,93.428,170.579,89.398,170.579,84.428z M154.283,84.428c0-4.971-4.029-9-9-9h-10.002c-4.971,0-9,4.029-9,9s4.029,9,9,9
	h10.002C150.253,93.428,154.283,89.398,154.283,84.428z M276.903,224.293c0.78,0.209,1.563,0.309,2.335,0.309
	c3.974,0,7.61-2.651,8.688-6.673l4.789-17.872c1.286-4.801-1.563-9.736-6.364-11.022c-4.797-1.283-9.736,1.562-11.022,6.364
	l-4.789,17.872C269.253,218.071,272.102,223.006,276.903,224.293z M91.469,104.189c2.607,0.429,5.537-0.305,7.554-2.014
	c2.017-1.71,3.441-4.221,3.441-6.865V78.087c0-33.132,26.774-60.087,59.906-60.087c1.61,0,3.115,0.063,4.693,0.188
	c-8.341,12.947-20.511,22.306-34.162,26.124c-4.787,1.339-7.605,6.305-6.266,11.092c1.339,4.786,6.294,7.581,11.081,6.242
	c19.757-5.525,36.931-19.669,47.565-39.035c21.707,9.067,36.997,30.52,36.997,55.476c0,25.727-16.181,48.013-39.999,56.413
	c-2.833-2.391-6.491-4.072-10.479-4.072h-19.217c-8.972,0-16.271,7.529-16.271,16.5s7.299,16.5,16.271,16.5H171.8
	c7.276,0,13.452-4.794,15.525-11.396c23.19-7.843,41.144-25.929,48.888-48.412c10.455-2.538,17.252-9.011,17.252-16.992V66.679
	c0-8.283-7.303-14.944-18.446-17.265C223.564,20.501,195.227,0,162.288,0c-32.981,0-61.464,20.557-72.889,49.527
	c-10.84,2.42-17.934,9.001-17.934,17.151v19.948C71.465,95.296,79.415,102.189,91.469,104.189z M273.057,362.428h-32.98
	c-4.971,0-9,4.029-9,9s4.029,9,9,9h3.333c-0.024,0-0.037,0.635-0.037,0.913c0,4.971,4.029,9.087,9,9.087h8.387
	c4.971,0,9-4.116,9-9.087c0-0.278-0.013-0.913-0.037-0.913h3.334c4.971,0,9-4.029,9-9S278.027,362.428,273.057,362.428z
	 M343.271,252.428h-18.502c-4.971,0-9,4.029-9,9s4.029,9,9,9h18.502c4.971,0,9-4.029,9-9S348.241,252.428,343.271,252.428z
	 M331.133,224.545c3.515-3.515,3.515-9.214,0-12.729c-3.516-3.514-9.213-3.514-12.729,0l-13.082,13.082
	c-3.515,3.515-3.515,9.214,0,12.729c1.758,1.757,4.061,2.636,6.364,2.636s4.606-0.879,6.364-2.636L331.133,224.545z
	 M245.096,217.261c3.33-3.689,3.04-9.583-0.649-12.915c-12.981-11.719-31.523-18.918-49.6-18.918h-1.237
	c-3.844,0-7.264,2.645-8.512,6.281c-2.12,6.173-10.586,12.524-22.667,12.524c-12.081,0-20.546-6.402-22.665-12.574
	c-1.249-3.637-4.668-6.231-8.513-6.231h-1.237c-30.601,0-59.206,19.264-65.121,43.597L38.469,337.822
	c-0.125,0.464-0.214,0.993-0.264,1.484c-0.121,1.16-0.012,2.329,0.294,3.404c0.209,0.737,0.51,1.449,0.889,2.096
	c0,0.001,0.001,0.008,0.001,0.009c0.001,0.003,0.002,0.008,0.004,0.01c1.19,2.031,3.171,3.597,5.639,4.197
	c0.714,0.174,1.429,0.334,2.133,0.334c0.1,0,0.199,0.072,0.299,0.072h53.992c4.971,0,9-4.029,9-9s-4.029-9-9-9H58.61l23.775-97.871
	c3.652-15.023,22.954-27.905,43.356-29.514c6.951,11.05,21.07,18.31,36.688,18.31c15.62,0,29.74-7.29,36.691-18.341
	c12.329,0.96,24.511,6.002,33.263,13.903C236.075,221.247,241.765,220.952,245.096,217.261z M299.152,257.315
	c15.166,26.421-0.628,67.462-12.352,87.536c-1.673,2.864-4.686,4.501-7.78,4.501c-0.081,0-0.163,0.075-0.245,0.075h-44.416
	c-3.205,0-6.309-1.597-8.025-4.537c-11.724-20.074-27.52-61.174-12.354-87.595c5.442-9.479,17.247-20.78,42.586-20.78
	S293.711,247.836,299.152,257.315z M283.542,266.355c-4.535-7.901-13.359-11.801-26.976-11.801c-13.616,0-22.439,3.88-26.975,11.78
	c-8.608,14.998-1.807,43.093,9.802,65.093h34.348C285.35,309.428,292.15,281.353,283.542,266.355z"/>
</svg>