<svg width="32" height="32" viewBox="0 0 32 32" fill="none" xmlns="http://www.w3.org/2000/svg">
<path d="M0 0V32H32V0H0ZM2.90909 2.90909H29.0909V29.0909H2.90909V2.90909ZM22.1733 14.5455C20.1006 14.5455 18.7614 15.8722 18.7614 17.6278C18.7614 19.5348 19.8795 20.4462 21.5653 21.1648L22.1477 21.4148C23.2125 21.8846 23.8466 22.1588 23.8466 22.9602C23.8466 23.6366 23.2258 24.1222 22.2585 24.1222C21.1123 24.1222 20.4605 23.5149 19.9631 22.6989L18.0568 23.7898C18.7332 25.144 20.1423 26.1818 22.3125 26.1818C24.5234 26.1818 26.1818 25.035 26.1818 22.9347C26.1818 20.9725 25.0623 20.1007 23.071 19.2585L22.4915 19.0085C21.4835 18.5663 21.054 18.2761 21.054 17.5852C21.054 17.018 21.4824 16.5767 22.1733 16.5767C22.8511 16.5767 23.2775 16.8667 23.679 17.5852L25.5057 16.4119C24.7319 15.0578 23.6657 14.5455 22.1733 14.5455ZM13.6648 14.6847V22.6307C13.6648 23.7914 13.167 24.0938 12.4063 24.0938C11.6048 24.0938 11.2598 23.5422 10.9006 22.892L8.99432 24.0398C9.54705 25.215 10.6367 26.1818 12.5028 26.1818C14.5756 26.1818 16 25.0752 16 22.6563V14.6847H13.6648Z" fill="#CCCCCC"/>
</svg>
