<svg width="32" height="32" viewBox="0 0 32 32" fill="none" xmlns="http://www.w3.org/2000/svg">
<path d="M9.6 9.6L10.4647 8.97547C10.1938 8.60041 9.71204 8.44273 9.27183 8.58507C8.8316 8.72742 8.53333 9.13734 8.53333 9.6H9.6ZM16 29.8667C8.34165 29.8667 2.13333 23.6585 2.13333 16H0C0 24.8365 7.16344 32 16 32V29.8667ZM29.8667 16C29.8667 23.6585 23.6585 29.8667 16 29.8667V32C24.8365 32 32 24.8365 32 16H29.8667ZM16 2.13333C23.6585 2.13333 29.8667 8.34165 29.8667 16H32C32 7.16344 24.8365 0 16 0V2.13333ZM16 0C7.16344 0 0 7.16344 0 16H2.13333C2.13333 8.34165 8.34165 2.13333 16 2.13333V0ZM10.6667 25.6V9.6H8.53333V25.6H10.6667ZM8.73527 10.2245L22.602 29.4244L24.3313 28.1756L10.4647 8.97547L8.73527 10.2245ZM21.3333 8.53333V21.3333H23.4667V8.53333H21.3333Z" fill="#CCCCCC"/>
</svg>
