<svg width="32" height="32" viewBox="0 0 32 32" fill="none" xmlns="http://www.w3.org/2000/svg">
<path d="M15.9977 31.9973C15.9962 31.9973 15.9947 31.9973 15.9932 31.9973C15.4835 31.9973 15.0069 31.876 14.5979 31.6626L14.6115 31.6693L10.1956 29.353C9.537 29.025 9.85876 28.9103 10.0753 28.8423C10.8361 28.6302 11.4976 28.3555 12.1081 28.0182L12.072 28.0368C12.1141 28.0195 12.1622 28.0102 12.2133 28.0102C12.2825 28.0102 12.3471 28.0288 12.4013 28.0608L12.3998 28.0595L15.7918 29.8451C15.8504 29.8731 15.9211 29.8904 15.9962 29.8904C16.0714 29.8904 16.1421 29.8731 16.2037 29.8437L16.2007 29.8451L29.4229 23.0749C29.5447 23.0082 29.6244 22.8909 29.6244 22.7575C29.6244 22.7562 29.6244 22.7562 29.6244 22.7548V9.22382C29.6229 9.08914 29.5417 8.97045 29.4199 8.90511L29.4184 8.90378L16.2007 2.14027C16.1421 2.11093 16.0714 2.09359 15.9977 2.09359C15.9241 2.09359 15.8534 2.11093 15.7918 2.1416L15.7933 2.14027L2.57858 8.90511C2.45379 8.97045 2.37109 9.08914 2.36959 9.22515V22.7588C2.36959 22.8935 2.45229 23.0095 2.57558 23.0709L2.57708 23.0722L6.20063 24.9284C8.16577 25.8006 9.3686 24.7738 9.3686 23.743V10.3786C9.3686 10.1919 9.54001 10.0399 9.75051 10.0399H9.75502H11.4315C11.642 10.0399 11.8149 10.1906 11.8149 10.3786V23.743C11.8149 26.0699 10.3865 27.4048 7.89964 27.4048C7.86957 27.4048 7.83499 27.4061 7.8004 27.4061C6.71033 27.4061 5.69243 27.1327 4.82939 26.6593L1.38627 24.9018C0.550298 24.4644 0 23.671 0 22.7615V9.22515C0.00150355 8.31837 0.553305 7.52761 1.37424 7.09822L1.38777 7.09155L14.6115 0.314706C15.0129 0.116014 15.4911 0 16.0008 0C16.5105 0 16.9901 0.117348 17.4051 0.321373L17.39 0.314706L30.6122 7.09155C31.4467 7.52761 31.997 8.31837 32 9.22515V22.7602C31.9985 23.6683 31.4467 24.4617 30.6243 24.8938L30.6107 24.9004L17.3915 31.672C16.9946 31.8787 16.5165 32 16.0053 32C16.0023 32 15.9977 32 15.9947 32L15.9977 31.9973Z" fill="#CCCCCC"/>
<path d="M20.0828 22.6748C14.2971 22.6748 13.0837 20.3199 13.0837 18.3423V18.341C13.0837 18.1543 13.2536 18.0036 13.4641 18.0036H13.4671H15.1767C15.3676 18.0036 15.527 18.1276 15.5571 18.2889C15.8142 19.8331 16.584 20.6132 20.0828 20.6132C22.8688 20.6132 24.0521 20.0545 24.0521 18.7437C24.0521 17.9876 23.7168 17.4275 19.3881 17.0515C15.7706 16.7314 13.5333 16.0247 13.5333 13.4577C13.5333 11.092 15.7826 9.67987 19.5475 9.67987C23.7845 9.67987 25.8804 10.984 26.1451 13.7817C26.1466 13.7911 26.1466 13.8017 26.1466 13.8111C26.1466 13.9991 25.9752 14.1498 25.7647 14.1498H24.0611C23.8807 14.1498 23.7289 14.0364 23.6913 13.8857V13.8831C23.2793 12.2589 22.2779 11.7401 19.5625 11.7401C16.5208 11.7401 16.1675 12.6802 16.1675 13.383C16.1675 14.2364 16.5855 14.4845 20.6917 14.9659C24.7543 15.4433 26.6848 16.1167 26.6848 18.649C26.6788 21.208 24.2777 22.6722 20.0873 22.6722L20.0828 22.6748Z" fill="#CCCCCC"/>
</svg>
