<svg width="33" height="25" viewBox="0 0 33 25" fill="none" xmlns="http://www.w3.org/2000/svg">
<path d="M8.49023 8.5C9.5569 3.16667 12.2236 0.5 16.4902 0.5C22.8902 0.5 23.6902 6.5 26.8902 7.5C29.0236 8.16667 30.8902 7.16667 32.4902 4.5C31.4236 9.83333 28.7569 12.5 24.4902 12.5C18.0902 12.5 17.2902 6.5 14.0902 5.5C11.9569 4.83333 10.0902 5.83333 8.49023 8.5ZM0.490234 20.5C1.5569 15.1667 4.22357 12.5 8.49023 12.5C14.8902 12.5 15.6902 18.5 18.8902 19.5C21.0236 20.1667 22.8902 19.1667 24.4902 16.5C23.4236 21.8333 20.7569 24.5 16.4902 24.5C10.0902 24.5 9.29023 18.5 6.09023 17.5C3.9569 16.8333 2.09023 17.8333 0.490234 20.5Z" stroke="#CCCCCC"/>
</svg>
